<!--
  eelKit Framework
  Copyright (c) 2026 James Elstone
  Licensed under the BSD 3-Clause License
  See LICENSE file for details.
-->
<svg xmlns="http://www.w3.org/2000/svg" viewBox="0 0 24 24" fill="none" stroke="#ffffff" stroke-width="1.35" stroke-linecap="round" stroke-linejoin="round" aria-hidden="true">
  <path stroke="none" d="M0 0h24v24H0z" fill="none"/>
  <path d="M7 5h10"/>
  <path d="M7 3v4"/>
  <path d="M17 3v4"/>
  <path d="M5 7h14a2 2 0 0 1 2 2v9a2 2 0 0 1 -2 2h-14a2 2 0 0 1 -2 -2v-9a2 2 0 0 1 2 -2z"/>
  <path d="M8 12h3"/>
  <path d="M14 12h2"/>
  <path d="M8 16h2"/>
  <path d="M13 16h3"/>
</svg>
